<?xml version="1.0" encoding="UTF-8" standalone="no"?>

<svg
   width="78.47113mm"
   height="13.30141mm"
   viewBox="0 0 78.471133 13.301409"
   version="1.1"
   id="svg1"
   xmlns="http://www.w3.org/2000/svg"
   xmlns:svg="http://www.w3.org/2000/svg">
  <defs
     id="defs1" />
  <g
     id="g20"
     style="display:inline"
     transform="matrix(0.11319535,0,0,0.11319535,-4.0161683,-2.0495541)">
    <g
       id="g3"
       style="display:inline"
       transform="matrix(-0.81255774,0,0,0.81255774,228.2337,0.72323656)">
      <g
         id="g17"
         transform="matrix(3.3381177,0,0,3.3381177,-371.98301,-242.15282)"
         style="display:inline">
        <g
           id="g26"
           transform="matrix(-1,0,0,1,320.50786,0)"
           style="display:inline">
          <path
             style="fill:none;fill-rule:evenodd;stroke:#6f7c49;stroke-width:4.39367;stroke-linecap:round;stroke-linejoin:round;stroke-dasharray:none;stroke-opacity:1"
             id="path25"
             d="m 584.28461,578.2677 c 0.72622,0.47827 -0.28641,1.2149 -0.79493,1.20703 -1.37803,-0.0213 -1.93735,-1.66565 -1.61914,-2.79687 0.5692,-2.0235 2.98081,-2.74327 4.79883,-2.03126 2.66803,1.04489 3.56836,4.31211 2.44337,6.80079 -1.49942,3.31702 -5.64891,4.40133 -8.80274,2.85548 -3.96878,-1.9453 -5.23835,-6.98829 -3.2676,-10.8047 0.0841,-0.16282 0.17334,-0.32295 0.26758,-0.4801"
             transform="matrix(-0.05872264,0.1871356,-0.1871356,-0.05872264,296.86875,5.5448934)" />
          <path
             style="opacity:1;fill:#6f7c49;fill-opacity:1;fill-rule:evenodd;stroke:#6f7c49;stroke-width:0.861744;stroke-linecap:round;stroke-linejoin:round;stroke-dasharray:none;stroke-dashoffset:29.2479;stroke-opacity:1;paint-order:markers fill stroke"
             id="path26"
             d="m 155.7355,79.931009 c 0.11534,0.133084 0.67146,0.936777 0.9048,1.326199 0.25097,0.532084 0.42124,0.806208 0.61509,1.412027 0.0724,0.229562 0.32157,0.858469 0.34671,1.031366 -0.0304,-0.176891 -0.27501,-0.758234 -0.34671,-1.031366 -0.19633,-0.597009 -0.37905,-0.880349 -0.61509,-1.412027 -0.21602,-0.401116 -0.77038,-1.177162 -0.9048,-1.326199 -0.0713,-0.07305 -0.0998,-0.115159 0,0 z" />
          <ellipse
             style="display:inline;opacity:1;fill:#6f7c49;fill-opacity:1;fill-rule:evenodd;stroke:#6f7c49;stroke-width:0.350945;stroke-linecap:round;stroke-linejoin:round;stroke-dasharray:none;stroke-dashoffset:29.2479;stroke-opacity:1;paint-order:markers fill stroke"
             id="ellipse26"
             cx="143.14827"
             cy="27.610725"
             rx="1.4825788"
             ry="1.4825786"
             transform="matrix(0.29957002,0,0,0.29957002,111.52375,72.541726)" />
        </g>
        <g
           id="g8"
           transform="translate(-0.11458212)"
           style="display:inline">
          <path
             style="fill:none;fill-rule:evenodd;stroke:#6f7c49;stroke-width:4.39367;stroke-linecap:round;stroke-linejoin:round;stroke-dasharray:none;stroke-opacity:1"
             id="path6"
             d="m 584.28461,578.2677 c 0.72622,0.47827 -0.28641,1.2149 -0.79493,1.20703 -1.37803,-0.0213 -1.93735,-1.66565 -1.61914,-2.79687 0.5692,-2.0235 2.98081,-2.74327 4.79883,-2.03126 2.66803,1.04489 3.56836,4.31211 2.44337,6.80079 -1.49942,3.31702 -5.64891,4.40133 -8.80274,2.85548 -3.96878,-1.9453 -5.23835,-6.98829 -3.2676,-10.8047 0.0841,-0.16282 0.17334,-0.32295 0.26758,-0.4801"
             transform="matrix(-0.05872264,0.1871356,-0.1871356,-0.05872264,296.86875,5.5448934)" />
          <path
             style="display:inline;opacity:1;fill:#6f7c49;fill-opacity:1;fill-rule:evenodd;stroke:#6f7c49;stroke-width:0.861744;stroke-linecap:round;stroke-linejoin:round;stroke-dasharray:none;stroke-dashoffset:29.2479;stroke-opacity:1;paint-order:markers fill stroke"
             id="path8"
             d="m 155.7355,79.931009 c 0.11534,0.133084 0.67146,0.936777 0.9048,1.326199 0.25097,0.532084 0.42124,0.806208 0.61509,1.412027 0.0724,0.229562 0.32157,0.858469 0.34671,1.031366 -0.0304,-0.176891 -0.27501,-0.758234 -0.34671,-1.031366 -0.19633,-0.597009 -0.37905,-0.880349 -0.61509,-1.412027 -0.21602,-0.401116 -0.77038,-1.177162 -0.9048,-1.326199 -0.0713,-0.07305 -0.0998,-0.115159 0,0 z" />
          <ellipse
             style="display:inline;opacity:1;fill:#6f7c49;fill-opacity:1;fill-rule:evenodd;stroke:#6f7c49;stroke-width:0.350945;stroke-linecap:round;stroke-linejoin:round;stroke-dasharray:none;stroke-dashoffset:29.2479;stroke-opacity:1;paint-order:markers fill stroke"
             id="ellipse8"
             cx="143.14827"
             cy="27.610725"
             rx="1.4825788"
             ry="1.4825786"
             transform="matrix(0.29957002,0,0,0.29957002,111.52375,72.541726)" />
        </g>
      </g>
      <path
         id="path27"
         style="display:inline;opacity:1;fill:#ffffff;fill-opacity:1;fill-rule:evenodd;stroke:#6f7c49;stroke-width:5.7532;stroke-linecap:round;stroke-linejoin:round;stroke-dasharray:none;stroke-dashoffset:29.2479;stroke-opacity:1;paint-order:markers fill stroke"
         d="m 162.77078,27.669257 -9.51895,6.050621 -4.89796,11.513608 -17.74044,25.127984 c 0,0 -49.587689,49.63003 -37.523811,65.77153 5.938312,7.94548 15.940561,7.3773 24.462591,2.96536 3.27311,6.45671 5.56841,10.88977 11.11942,12.60191 5.74495,1.77197 14.16952,-0.46673 21.49723,-4.44784 l 12.60192,15.329 12.60191,-15.329 c 7.32771,3.98111 15.75228,6.21981 21.49723,4.44784 5.55101,-1.71214 7.84632,-6.1452 11.11943,-12.60191 8.52203,4.41194 18.52427,4.98012 24.46259,-2.96536 12.06389,-16.1415 -37.52381,-65.77153 -37.52381,-65.77153 L 177.18769,45.233486 172.28973,33.719878 Z" />
      <path
         id="path3"
         style="display:inline;opacity:1;fill:#6f7c49;fill-opacity:1;fill-rule:evenodd;stroke:#ffffff;stroke-width:2.8766;stroke-linecap:round;stroke-linejoin:round;stroke-dasharray:none;stroke-dashoffset:29.2479;stroke-opacity:1;paint-order:markers fill stroke"
         d="m 162.77078,31.867725 -8.744,5.571781 -4.49918,10.603046 -16.29626,23.140224 c 0,0 -48.258424,47.861834 -37.176744,62.726494 5.466464,7.33256 14.581754,5.15428 22.421194,1.07451 3.04047,5.96032 7.31017,12.18527 12.41958,13.75113 5.26393,1.61322 13.29852,-1.66113 19.98562,-5.31244 l 11.88979,12.68543 11.90626,-12.70305 c 6.73111,3.66618 14.82601,6.96186 20.10323,5.33006 5.09907,-1.57671 9.32943,-7.78026 12.33606,-13.72623 7.82818,4.06295 16.91579,6.21756 22.37063,-1.09941 11.08168,-14.86466 -37.17674,-62.726494 -37.17674,-62.726494 L 176.01396,48.042552 171.51478,37.439506 Z" />
    </g>
    <path
       id="path18"
       style="font-size:18.1011px;line-height:1.5;font-family:Harrington;-inkscape-font-specification:'Harrington, Normal';letter-spacing:0.0942768px;word-spacing:0.188554px;display:inline;fill:#6f7c49;fill-opacity:1;fill-rule:evenodd;stroke-width:1.02697;stroke-linecap:round;stroke-linejoin:round;stroke-dashoffset:29.2479;paint-order:markers fill stroke"
       d="m 60.398132,51.394424 c -0.48959,0 -0.879106,0.273613 -1.167506,0.820693 -0.21458,0.412712 -0.308644,0.80087 -0.281844,1.165595 0.0067,0.105544 0.03421,0.158598 0.08121,0.158598 0.04692,0 0.08688,-0.02359 0.120381,-0.07166 0.07372,-0.08646 0.133672,-0.158421 0.180572,-0.215921 0.12073,-0.134172 0.234675,-0.206222 0.342035,-0.215922 0.26156,0 0.462977,0.120236 0.603817,0.360188 0.14753,0.230341 0.221654,0.580652 0.221654,1.050946 0,0.681446 -0.168149,1.294945 -0.503499,1.842022 -0.24815,0.412713 -0.643354,0.854855 -1.186614,1.325148 l -3.199654,2.159217 c -0.30181,0.211153 -0.616256,0.475293 -0.944896,0.792031 -0.24814,0.239951 -0.50371,0.504092 -0.76528,0.792032 v -7.659488 c 0,-0.182356 0.104508,-0.388745 0.312418,-0.619103 0.26157,-0.287939 0.399335,-0.446006 0.412735,-0.474836 0.0269,-0.04805 0.04013,-0.101108 0.04013,-0.158598 0,-0.105545 -0.06081,-0.158597 -0.181527,-0.158597 -0.03354,0 -0.191236,0.01414 -0.472926,0.04299 -0.27498,0.02854 -0.918354,0.04395 -1.186614,0.04395 -0.13414,0 -0.368794,-0.01513 -0.704134,-0.04395 -0.33533,-0.03827 -0.536816,-0.05269 -0.603816,-0.04299 -0.09397,0 -0.147008,0.03888 -0.160508,0.115604 -0.0066,0.07682 -1.37e-4,0.134488 0.02006,0.172928 0.14756,0.17276 0.294803,0.340333 0.442353,0.503499 0.20124,0.230356 0.301908,0.436749 0.301908,0.619103 v 17.333926 c 0,0.182355 -0.103562,0.388746 -0.311462,0.619103 -0.26828,0.297581 -0.412799,0.465208 -0.432799,0.503498 -0.02,0.02885 -0.03057,0.06755 -0.03057,0.115605 0,0.115271 0.05701,0.172928 0.171018,0.172928 0.06708,0.0095 0.181065,0.0039 0.342035,-0.01529 0.42924,-0.04804 0.751305,-0.07165 0.965915,-0.07165 0.12744,0 0.727084,0.01903 1.055724,0.05732 0.33534,0.02899 0.536816,0.03836 0.603816,0.02866 0.12069,0 0.181527,-0.05304 0.181527,-0.158598 0,-0.0192 -0.0035,-0.04282 -0.01051,-0.07165 -0.0068,-0.03826 -0.01707,-0.06676 -0.03057,-0.08599 -0.01342,-0.02878 -0.15401,-0.192592 -0.42229,-0.490123 -0.20124,-0.220765 -0.301908,-0.421461 -0.301908,-0.603816 v -8.148655 c 0.34204,-0.499091 0.75815,-0.983834 1.24776,-1.454128 0.60361,-0.566283 1.186923,-0.983804 1.750303,-1.252537 0.30853,0.499092 0.556471,0.954474 0.744261,1.367186 0.26157,0.575877 0.44966,1.176134 0.56369,1.799984 0.12071,0.61427 0.228071,1.382087 0.321971,2.303483 0.14088,1.372506 0.221518,2.140316 0.241718,2.303483 0.11402,0.873411 0.27458,1.698992 0.48248,2.476412 0.3823,1.439677 0.851598,2.576736 1.408268,3.411754 0.71092,1.065358 1.529843,1.598393 2.455393,1.598393 0.26156,0 0.459167,-0.09657 0.593307,-0.288532 0.14085,-0.191949 0.211144,-0.431483 0.211144,-0.719421 0,-0.220748 -0.06364,-0.408171 -0.191081,-0.561778 -0.12073,-0.143941 -0.258475,-0.215922 -0.412735,-0.215922 -0.11401,0.01923 -0.214708,0.07228 -0.301908,0.158598 -0.08717,0.09597 -0.140509,0.216191 -0.160509,0.360187 -0.0134,0.08638 0.01326,0.200907 0.08025,0.344902 0.0201,0.09592 0.0068,0.144266 -0.04013,0.144266 -0.53653,0 -1.009668,-0.426995 -1.418778,-1.281199 -0.34206,-0.710245 -0.592845,-1.607769 -0.753815,-2.692333 -0.12744,-1.410895 -0.251888,-2.826286 -0.372608,-4.246778 -0.15425,-1.199725 -0.38606,-2.222242 -0.69458,-3.066853 -0.27498,-0.767826 -0.569476,-1.439071 -0.884706,-2.01495 -0.26826,-0.489498 -0.630236,-1.055659 -1.086296,-1.698712 0.51642,-0.239952 0.975275,-0.485175 1.377695,-0.734707 0.55666,-0.345535 1.01648,-0.705289 1.37865,-1.079608 0.50972,-0.527876 0.87833,-1.070384 1.10636,-1.627056 0.25486,-0.614272 0.382162,-1.329073 0.382162,-2.144886 0,-0.719855 -0.140599,-1.343767 -0.422289,-1.87164 -0.28169,-0.537487 -0.6503,-0.806362 -1.10636,-0.806362 z m 14.406563,8.701835 c -0.238233,0 -0.458727,0.116301 -0.662096,0.348723 -0.20337,0.226612 -0.30573,0.474109 -0.30573,0.741395 0,0.569435 0.299594,0.854133 0.898081,0.854133 0.238233,0 0.465258,-0.113513 0.680249,-0.340125 0.214991,-0.232422 0.321972,-0.476176 0.321972,-0.731841 0,-0.581055 -0.310746,-0.872285 -0.932476,-0.872285 z m 5.863325,4.22767 c -0.749562,0 -1.34875,0.168398 -1.796163,0.50541 -0.482276,0.348633 -0.723242,0.837097 -0.723242,1.464637 0,0.511329 0.154457,0.917904 0.462416,1.220053 0.284717,0.284717 0.851325,0.615936 1.699667,0.993622 0.586866,0.255664 0.981333,0.478946 1.184703,0.670695 0.185938,0.168506 0.278978,0.377847 0.278978,0.627701 0,0.569435 -0.409363,0.854133 -1.228651,0.854133 -0.970364,0 -1.673744,-0.380527 -2.109536,-1.14171 -0.09878,-0.168506 -0.217868,-0.243863 -0.357322,-0.226431 -0.139453,0.01162 -0.209234,0.170699 -0.209234,0.478658 0,0.714699 0.02326,1.11291 0.06974,1.194257 0.07554,0.08716 0.349083,0.182987 0.819738,0.287577 0.546192,0.116212 1.092328,0.17484 1.638521,0.17484 0.819288,0 1.464041,-0.180505 1.934696,-0.54076 0.476466,-0.366065 0.714644,-0.857316 0.714644,-1.473236 0,-0.557813 -0.173974,-1.001589 -0.522607,-1.33279 -0.267286,-0.255665 -0.773433,-0.543151 -1.517184,-0.862732 -0.708888,-0.307959 -1.159196,-0.534985 -1.350944,-0.680249 -0.214991,-0.168506 -0.321972,-0.395531 -0.321972,-0.680249 0,-0.511329 0.398211,-0.766235 1.194257,-0.766235 0.703078,0 1.283626,0.373995 1.74266,1.123557 0.06392,0.10459 0.192325,0.13717 0.384073,0.0965 0.180128,-0.04648 0.261061,-0.1079 0.243629,-0.183438 C 82.753623,65.51182 82.657794,65.041041 82.61131,64.71565 82.59388,64.605249 82.376172,64.512208 81.957812,64.436671 81.568505,64.361131 81.13867,64.323933 80.668015,64.323933 Z m -11.987476,0.03439 c -0.685646,0 -1.400179,0.195401 -2.14393,0.584708 -0.708888,0.371876 -1.063367,0.696563 -1.063367,0.975469 0,0.447413 0.238178,0.64839 0.714644,0.601906 0.41836,-0.03486 0.73747,-0.275829 0.958272,-0.723242 0.226611,-0.447413 0.464789,-0.67165 0.714643,-0.67165 0.877394,0 1.298865,0.476355 1.264002,1.429287 l -0.0172,0.557957 c -0.0058,0.244043 -0.206788,0.404076 -0.601906,0.479613 -2.300981,0.435792 -3.450925,1.155901 -3.450925,2.161128 0,0.528761 0.173973,0.947443 0.522607,1.255403 0.31958,0.278907 0.717791,0.418468 1.194257,0.418468 0.505518,0 1.007922,-0.119089 1.50763,-0.357322 0.499708,-0.238233 0.776042,-0.357322 0.828337,-0.357322 0.06973,0 0.191603,0.109769 0.36592,0.330571 0.174317,0.220801 0.374338,0.331525 0.60095,0.331525 0.267286,0 0.621764,-0.121877 1.063367,-0.36592 0.447413,-0.249854 0.67165,-0.435935 0.67165,-0.557957 0,-0.226612 -0.08468,-0.340124 -0.253183,-0.340124 -0.02905,0 -0.133245,0.0149 -0.313373,0.04395 -0.180127,0.02905 -0.302004,0.04395 -0.36592,0.04395 -0.325391,0 -0.485424,-0.188869 -0.479614,-0.566556 l 0.0344,-3.59137 c 0.01162,-1.121437 -0.571715,-1.682469 -1.751259,-1.682469 z m 6.447078,0 c -0.06973,0 -0.258596,0.10236 -0.566556,0.30573 -0.383496,0.255664 -0.819863,0.458474 -1.30795,0.609549 -0.226612,0.06973 -0.340124,0.200923 -0.340124,0.392671 0,0.122022 0.0791,0.212275 0.235985,0.27038 0.377686,0.127832 0.627016,0.312958 0.749038,0.557002 0.09297,0.191748 0.139489,0.522966 0.139489,0.993622 v 4.428305 c 0,0.9355 -0.09304,1.637925 -0.278978,2.10858 -0.162696,0.400929 -0.450182,0.744255 -0.862732,1.028972 -0.331202,0.232423 -0.496811,0.429656 -0.496811,0.592352 0,0.08716 0.04373,0.148574 0.130891,0.183438 0.08716,0.03486 0.180199,0.03208 0.278978,-0.0086 1.725736,-0.679835 2.588194,-2.042864 2.588194,-4.088181 V 67.37454 c 0,-0.546193 0.0093,-1.110013 0.02675,-1.691068 0.01743,-0.586867 0.0258,-0.877141 0.0258,-0.87133 0,-0.302149 -0.106981,-0.453818 -0.321972,-0.453818 z m 13.442558,0 c -0.685646,0 -1.400179,0.195401 -2.14393,0.584708 -0.708888,0.371876 -1.063367,0.696563 -1.063367,0.975469 0,0.447413 0.238178,0.64839 0.714644,0.601906 0.41836,-0.03486 0.73747,-0.275829 0.958272,-0.723242 0.226611,-0.447413 0.464789,-0.67165 0.714643,-0.67165 0.877394,0 1.298865,0.476355 1.264002,1.429287 l -0.0172,0.557957 c -0.0058,0.244043 -0.205832,0.404076 -0.60095,0.479613 -2.300981,0.435792 -3.451881,1.155901 -3.451881,2.161128 0,0.528761 0.173974,0.947443 0.522607,1.255403 0.319581,0.278907 0.717792,0.418468 1.194258,0.418468 0.505518,0 1.007922,-0.119089 1.50763,-0.357322 0.499708,-0.238233 0.776041,-0.357322 0.828336,-0.357322 0.06973,0 0.191604,0.109769 0.365921,0.330571 0.174317,0.220801 0.375294,0.331525 0.601905,0.331525 0.267286,0 0.621765,-0.121877 1.063367,-0.36592 0.447413,-0.249854 0.670695,-0.435935 0.670695,-0.557957 0,-0.226612 -0.08468,-0.340124 -0.253183,-0.340124 -0.02905,0 -0.133245,0.0149 -0.313373,0.04395 -0.180127,0.02905 -0.302004,0.04395 -0.36592,0.04395 -0.325391,0 -0.485424,-0.188869 -0.479614,-0.566556 l 0.03535,-3.59137 c 0.01162,-1.121437 -0.572671,-1.682469 -1.752214,-1.682469 z m -19.68709,3.776719 c 0.05665,0.0044 0.10176,0.01784 0.136623,0.04108 0.07554,0.04649 0.110905,0.142313 0.105095,0.287577 l -0.0172,1.429287 c 0,0.180127 -0.180505,0.334584 -0.54076,0.462416 -0.30796,0.110401 -0.607553,0.165286 -0.898081,0.165286 -0.72632,0 -1.089163,-0.334007 -1.089163,-1.002221 0,-0.662404 0.700593,-1.118287 2.100937,-1.368141 0.07844,-0.01453 0.145893,-0.01964 0.202546,-0.01529 z m 19.889636,0 c 0.05665,0.0044 0.102715,0.01784 0.137579,0.04108 0.07554,0.04649 0.109949,0.142313 0.104139,0.287577 l -0.0172,1.429287 c 0,0.180127 -0.180505,0.334584 -0.540759,0.462416 -0.30796,0.110401 -0.606598,0.165286 -0.897126,0.165286 -0.72632,0 -1.090118,-0.334007 -1.090118,-1.002221 0,-0.662404 0.700593,-1.118287 2.100937,-1.368141 0.07844,-0.01453 0.145893,-0.01964 0.202546,-0.01529 z"
       transform="matrix(4.7782486,0,0,4.7782486,-61.396396,-226.83022)" />
    <path
       id="text18"
       style="font-style:normal;font-variant:normal;font-weight:normal;font-stretch:normal;font-size:90.5013px;line-height:1.5;font-family:Harrington;-inkscape-font-specification:'Harrington, Normal';font-variant-ligatures:normal;font-variant-caps:normal;font-variant-numeric:normal;font-variant-east-asian:normal;letter-spacing:0.918858px;word-spacing:1.83769px;display:inline;opacity:1;fill:#6f7c49;fill-opacity:1;fill-rule:evenodd;stroke:none;stroke-width:7.35078;stroke-linecap:round;stroke-linejoin:round;stroke-dasharray:none;stroke-dashoffset:29.2479;stroke-opacity:1;paint-order:markers fill stroke"
       d="m 262.57741,41.346318 c -0.41244,0 -0.64768,0.117327 -0.7066,0.353008 -0.0295,0.23568 -4e-4,0.413083 0.088,0.530923 0.64812,0.530281 1.29571,1.046766 1.94383,1.547587 0.8838,0.707041 1.32522,1.340852 1.32522,1.900594 v 44.453564 c 0,4.86091 -0.98729,9.500795 -2.96112,13.919806 -1.70868,3.85926 -3.19551,5.78932 -4.46229,5.78932 -0.38299,0 -0.61822,-0.14595 -0.7066,-0.44055 -0.0589,-0.26514 -0.088,-0.73727 -0.088,-1.41485 0,-0.47136 -0.20617,-0.91487 -0.61861,-1.32731 -0.53028,-0.53028 -1.23875,-0.79356 -2.12255,-0.79356 -0.82488,0 -1.51607,0.29473 -2.07581,0.88393 -0.55974,0.5892 -0.84132,1.32461 -0.84132,2.20841 0,0.97219 0.47323,1.7834 1.41595,2.43152 0.91326,0.67758 2.15033,1.01666 3.71171,1.01666 3.06384,0 5.83408,-1.97441 8.30872,-5.92206 l 4.86097,-9.898334 c 0.94272,-1.914903 1.79649,-3.315578 2.56245,-4.19938 0.47136,-0.530281 0.85465,-0.837912 1.14925,-0.926293 0.2946,-0.11784 0.43991,-0.250892 0.43991,-0.398192 0,-0.176761 -0.0872,-0.309813 -0.26394,-0.398193 -0.58921,-0.530281 -1.03062,-1.179818 -1.32522,-1.945779 -0.53028,-1.414083 -0.79733,-3.474371 -0.79733,-6.184697 V 45.67843 c 0,-0.559742 0.45869,-1.193553 1.37196,-1.900594 1.14894,-0.883802 1.75294,-1.37166 1.81186,-1.460041 0.11784,-0.1473 0.17596,-0.308978 0.17596,-0.485738 0,-0.324061 -0.2643,-0.485739 -0.79458,-0.485739 -0.1473,0 -0.84123,0.04435 -2.07855,0.132731 -1.20787,0.08838 -2.40134,0.132731 -3.57974,0.132731 -0.5892,0 -1.62009,-0.04435 -3.09309,-0.132731 -1.473,-0.11784 -2.35583,-0.162191 -2.65043,-0.132731 z m 104.15875,38.684005 c -2.15704,0 -3.8786,0.497762 -5.16614,1.493929 -1.38787,1.030518 -2.08131,2.471531 -2.08131,4.326464 0,1.511426 0.44174,2.713212 1.32797,3.606327 0.81934,0.84159 2.44989,1.820631 4.8912,2.937025 1.68886,0.755713 2.82678,1.418531 3.41203,1.985316 0.53508,0.498083 0.80282,1.116871 0.80282,1.855409 0,1.683179 -1.17804,2.524711 -3.53574,2.524711 -2.79246,0 -4.81661,-1.12479 -6.0707,-3.374754 -0.28427,-0.498084 -0.62697,-0.723653 -1.02829,-0.672127 -0.40131,0.03435 -0.60212,0.507389 -0.60212,1.417679 0,2.112562 0.0669,3.289624 0.20071,3.530078 0.21738,0.25763 1.00457,0.54089 2.359,0.85004 1.5718,0.34351 3.14344,0.51681 4.71524,0.51681 2.3577,0 4.21314,-0.53355 5.56756,-1.598423 1.37115,-1.082044 2.05656,-2.534122 2.05656,-4.354704 0,-1.648828 -0.50065,-2.963399 -1.50393,-3.942391 -0.76918,-0.755713 -2.22574,-1.605487 -4.36606,-2.550128 -2.04,-0.910291 -3.33587,-1.578526 -3.88767,-2.007908 -0.61869,-0.498084 -0.92656,-1.169143 -0.92656,-2.010733 0,-1.511426 1.1432,-2.267722 3.43402,-2.267722 2.02328,0 3.6967,1.108308 5.01768,3.323922 0.18393,0.309155 0.55071,0.405457 1.10251,0.28523 0.51836,-0.137403 0.75402,-0.318941 0.70385,-0.54222 -0.41803,-1.820582 -0.6938,-3.212147 -0.82757,-4.173964 -0.0502,-0.326331 -0.67667,-0.601347 -1.8806,-0.824626 -1.12033,-0.223279 -2.36003,-0.33324 -3.71446,-0.33324 z m 20.53537,0 c -2.15705,0 -3.87861,0.497762 -5.16615,1.493929 -1.38787,1.030518 -2.08405,2.471531 -2.08405,4.326464 0,1.511426 0.44448,2.713212 1.33071,3.606327 0.81935,0.84159 2.4499,1.820631 4.89121,2.937025 1.68885,0.755713 2.82678,1.418531 3.41202,1.985316 0.53508,0.498083 0.80008,1.116871 0.80008,1.855409 0,1.683179 -1.17804,2.524711 -3.53575,2.524711 -2.79245,0 -4.81385,-1.12479 -6.06795,-3.374754 -0.28426,-0.498084 -0.62972,-0.723653 -1.03103,-0.672127 -0.40131,0.03435 -0.59937,0.507389 -0.59937,1.417679 0,2.112562 0.0669,3.289624 0.20071,3.530078 0.21737,0.25763 1.00182,0.54089 2.35624,0.85004 1.5718,0.34351 3.14344,0.51681 4.71525,0.51681 2.3577,0 4.21313,-0.53355 5.56756,-1.598423 1.37114,-1.082044 2.05656,-2.534122 2.05656,-4.354704 0,-1.648828 -0.50065,-2.963399 -1.50393,-3.942391 -0.76918,-0.755713 -2.22299,-1.605487 -4.36332,-2.550128 -2.04,-0.910291 -3.33587,-1.578526 -3.88767,-2.007908 -0.61869,-0.498084 -0.9293,-1.169143 -0.9293,-2.010733 0,-1.511426 1.14595,-2.267722 3.43677,-2.267722 2.02327,0 3.69394,1.108308 5.01492,3.323922 0.18394,0.309155 0.55347,0.405457 1.10527,0.28523 0.51836,-0.137403 0.75126,-0.318941 0.7011,-0.54222 -0.41803,-1.820582 -0.6938,-3.212147 -0.82757,-4.173964 -0.0502,-0.326331 -0.67667,-0.601347 -1.8806,-0.824626 -1.12033,-0.223279 -2.35729,-0.33324 -3.71171,-0.33324 z m -75.47413,0.05083 c -0.26754,0 -0.86723,0.324465 -1.80362,0.977126 -1.12033,0.790064 -2.14845,1.367645 -3.08484,1.728326 -0.68557,0.25763 -1.02828,0.55737 -1.02828,0.900876 0,0.360681 0.16597,0.599909 0.50039,0.720136 1.32098,0.463733 2.09741,0.82681 2.3315,1.08444 0.33443,0.360681 0.50315,1.202213 0.50315,2.524711 v 7.805709 c 0,2.00951 -0.44449,3.150782 -1.33072,3.425587 -0.95311,0.29198 -1.42969,0.643992 -1.42969,1.056206 0,0.46373 0.16871,0.7305 0.50314,0.79921 0.15049,0.0343 0.52529,0.01 1.12726,-0.0763 2.79246,-0.37786 5.50202,-0.51537 8.12726,-0.41232 0.4682,0.0172 0.75199,0.006 0.85232,-0.0282 0.21738,-0.0859 0.32718,-0.34158 0.32718,-0.770969 0,-0.446558 -0.3936,-0.705092 -1.1795,-0.773793 -2.05672,-0.188929 -3.08484,-1.090974 -3.08484,-2.705452 v -9.429544 c 0,-0.755713 0.60243,-1.484461 1.80637,-2.188648 1.27081,-0.721363 2.64967,-1.081616 4.13786,-1.081616 3.32754,0 4.99019,1.966323 4.99019,5.899466 v 6.851175 c 0,1.511426 -0.44174,2.396989 -1.32797,2.654619 -0.96983,0.274804 -1.45444,0.582786 -1.45444,0.926292 0,0.18893 0.0161,0.33751 0.0495,0.44056 0.0836,0.30915 0.60305,0.42735 1.55617,0.35865 1.85606,-0.12022 4.58167,-0.0844 8.17675,0.10449 0.75246,0.0515 1.12726,-0.19052 1.12726,-0.72296 0,-0.412207 -0.3748,-0.695465 -1.12726,-0.850043 -1.15377,-0.240454 -1.93294,-0.531953 -2.33425,-0.875459 -0.53508,-0.463733 -0.80283,-1.22827 -0.80283,-2.293139 l -0.0495,-8.294271 c -0.0334,-5.066712 -2.21553,-7.599551 -6.54635,-7.599551 -1.78918,0 -3.60449,0.506003 -5.44384,1.519345 -1.83934,0.996168 -2.69072,1.493929 -2.55695,1.493929 -0.26754,0 -0.47638,-0.525309 -0.62687,-1.573002 -0.15049,-1.064869 -0.45308,-1.595596 -0.90455,-1.595596 z m 118.92585,0 c -0.26754,0 -0.86997,0.324465 -1.80636,0.977126 -1.12033,0.790064 -2.14845,1.367645 -3.08484,1.728326 -0.68558,0.25763 -1.02828,0.55737 -1.02828,0.900876 0,0.360681 0.16596,0.599909 0.50039,0.720136 1.32098,0.463733 2.10015,0.82681 2.33425,1.08444 0.33443,0.360681 0.50039,1.202213 0.50039,2.524711 v 7.805709 c 0,2.00951 -0.44173,3.150782 -1.32796,3.425587 -0.95312,0.29198 -1.4297,0.643992 -1.4297,1.056206 0,0.46373 0.16597,0.7305 0.50039,0.79921 0.1505,0.0343 0.5253,0.01 1.12726,-0.0763 2.79246,-0.37786 5.50203,-0.51537 8.12727,-0.41232 0.4682,0.0172 0.75199,0.006 0.85232,-0.0282 0.21737,-0.0859 0.32718,-0.34158 0.32718,-0.770969 0,-0.446558 -0.3936,-0.705092 -1.1795,-0.773793 -2.05672,-0.188929 -3.08484,-1.090974 -3.08484,-2.705452 v -9.429544 c 0,-0.755713 0.60243,-1.484461 1.80636,-2.188648 1.27082,-0.721363 2.64967,-1.081616 4.13787,-1.081616 3.32754,0 4.99293,1.966323 4.99293,5.899466 v 6.851175 c 0,1.511426 -0.44449,2.396989 -1.33071,2.654619 -0.96984,0.274804 -1.45444,0.582786 -1.45444,0.926292 0,0.18893 0.016,0.33751 0.0495,0.44056 0.0836,0.30915 0.60305,0.42735 1.55616,0.35865 1.85607,-0.12022 4.58168,-0.0844 8.17676,0.10449 0.75246,0.0515 1.12726,-0.19052 1.12726,-0.72296 0,-0.412207 -0.3748,-0.695465 -1.12726,-0.850043 -1.15377,-0.240454 -1.93294,-0.531953 -2.33425,-0.875459 -0.53509,-0.463733 -0.80008,-1.22827 -0.80008,-2.293139 l -0.0522,-8.294271 c -0.0334,-5.066712 -2.21554,-7.599551 -6.54635,-7.599551 -1.78918,0 -3.60175,0.506003 -5.44109,1.519345 -1.83934,0.996168 -2.69348,1.493929 -2.55971,1.493929 -0.26754,0 -0.47637,-0.525309 -0.62686,-1.573002 -0.15049,-1.064869 -0.45033,-1.595596 -0.90181,-1.595596 z m -84.99535,0.05083 c -1.97311,0 -4.03211,0.574757 -6.17243,1.725502 -2.04,1.099219 -3.0601,2.061777 -3.0601,2.886191 0,1.322498 0.68542,1.913738 2.05656,1.776335 1.20394,-0.103051 2.125,-0.815317 2.76041,-2.137815 0.65213,-1.322498 1.33755,-1.982491 2.05656,-1.982491 2.52492,0 3.73781,1.408048 3.63748,4.224797 l -0.0495,1.649252 c -0.0167,0.721363 -0.59508,1.194401 -1.73213,1.417679 -6.62164,1.288148 -9.93363,3.416703 -9.93363,6.388029 0,1.562952 0.5034,2.800527 1.50668,3.710818 0.91967,0.82441 2.06562,1.23694 3.43676,1.23694 1.45476,0 2.90055,-0.35484 4.33858,-1.059024 1.43803,-0.704187 2.23325,-1.056199 2.38374,-1.056199 0.20065,0 0.55138,0.327288 1.05302,0.979949 0.50164,0.652654 1.07725,0.979944 1.72938,0.979944 0.76918,0 1.78928,-0.36025 3.0601,-1.08161 1.28754,-0.738538 1.93284,-1.288571 1.93284,-1.649252 0,-0.669837 -0.24368,-1.005366 -0.7286,-1.005366 -0.0836,0 -0.38344,0.04403 -0.9018,0.129906 -0.51836,0.08588 -0.87184,0.127083 -1.05578,0.127083 -0.93639,0 -1.39418,-0.558274 -1.37745,-1.674669 l 0.099,-10.612826 c 0.0335,-3.314832 -1.64525,-4.973173 -5.03967,-4.973173 z m -54.48786,0.282406 c -3.04328,0 -5.66184,1.006588 -7.85233,3.016098 -2.25737,2.078211 -3.38453,4.635774 -3.38453,7.675802 0,2.936976 0.89425,5.299341 2.68343,7.085572 1.85607,1.820579 4.38087,2.730869 7.57463,2.730869 3.19377,0 5.86849,-1.031313 8.02554,-3.092349 2.15705,-2.078211 3.23606,-4.61105 3.23606,-7.599552 0,-2.988502 -0.88622,-5.359108 -2.65868,-7.110989 -1.82262,-1.803406 -4.36347,-2.705451 -7.62412,-2.705451 z m 118.9231,0 c -3.04327,0 -5.65908,1.006588 -7.84957,3.016098 -2.25738,2.078211 -3.38728,4.635774 -3.38728,7.675802 0,2.936976 0.89425,5.299341 2.68343,7.085572 1.85606,1.820579 4.38086,2.730869 7.57463,2.730869 3.19377,0 5.86849,-1.031313 8.02554,-3.092349 2.15704,-2.078211 3.23606,-4.61105 3.23606,-7.599552 0,-2.988502 -0.88623,-5.359108 -2.65869,-7.110989 -1.82262,-1.803406 -4.36347,-2.705451 -7.62412,-2.705451 z M 290.4867,82.786608 c 1.90622,0 3.47786,0.813985 4.71524,2.445638 1.27082,1.683179 1.90809,3.875071 1.90809,6.571593 0,1.992335 -0.53549,3.614887 -1.60566,4.868683 -1.07016,1.253797 -2.52672,1.880826 -4.36606,1.880826 -1.93967,0 -3.51131,-0.756296 -4.71525,-2.267722 -1.30426,-1.648829 -1.95483,-3.950681 -1.95483,-6.904832 0,-1.837757 0.55957,-3.391555 1.67989,-4.662527 1.12033,-1.288148 2.56612,-1.931659 4.33858,-1.931659 z m 118.9231,0 c 1.90623,0 3.47787,0.813985 4.71525,2.445638 1.27081,1.683179 1.90809,3.875071 1.90809,6.571593 0,1.992335 -0.5355,3.614887 -1.60566,4.868683 -1.07016,1.253797 -2.52672,1.880826 -4.36607,1.880826 -1.93967,0 -3.51131,-0.756296 -4.71524,-2.267722 -1.30426,-1.648829 -1.95483,-3.950681 -1.95483,-6.904832 0,-1.837757 0.55956,-3.391555 1.67989,-4.662527 1.12033,-1.288148 2.56611,-1.931659 4.33857,-1.931659 z m -63.09902,8.506076 c 0.16303,0.01288 0.29283,0.05556 0.39316,0.124258 0.21738,0.137403 0.31916,0.420661 0.30244,0.850043 l -0.0495,4.224797 c 0,0.532435 -0.51945,0.986166 -1.55617,1.364022 -0.88623,0.326331 -1.74838,0.491387 -2.58445,0.491387 -2.09016,0 -3.13433,-0.987282 -3.13433,-2.962441 0,-1.957984 2.01613,-3.308343 6.04596,-4.046881 0.22574,-0.04294 0.41984,-0.05807 0.58288,-0.04519 z"
       transform="matrix(1.6604148,0,0,1.6165245,-20.318212,-48.078518)" />
  </g>
</svg>
